**** The.Circus.1928.DVDRiP.XViD.OPTIONAL-SWESUB-Zen_Bud ****

Format                           : AVI

File size                        : 1.37 GiB
Duration                         : 1h 11mn
Overall bit rate                 : 2 730 Kbps

Video

Format                           : MPEG-4 Visual
Codec ID/Hint                    : XviD
Duration                         : 1h 11mn
Bit rate                         : 2 589 Kbps
Width                            : 720 pixels
Height                           : 576 pixels
Display aspect ratio             : 5:4
Stream size                      : 1.30 GiB (95%)
Writing library                  : XviD 1.1.2 (UTC 2006-11-01)

Audio

Format                           : MPEG Audio
Codec ID/Hint                    : MP3
Duration                         : 1h 11mn
Bit rate                         : 128 Kbps
Channel(s)                       : 2 channels
Sampling rate                    : 48.0 KHz
Stream size                      : 65.7 MiB (5%)
Writing library                  : LAME3.98

******************************************************************

The Tramp finds work and the girl of his dreams at a circus. 

 
http://en.wikipedia.org/wiki/The_Circus_%28film%29


*******************************************************************